<mxfile host="app.diagrams.net" modified="2021-04-27T09:46:11.112Z" agent="5.0 (X11; Linux x86_64) AppleWebKit/537.36 (KHTML, like Gecko) Chrome/88.0.4324.150 Safari/537.36" etag="cmSQkWVSkc8FISnJdNuI" version="14.6.6" type="github">
  <diagram id="tbBz2RLeEPMq5aQvKJoK" name="Page-1">
    <mxGraphModel dx="621" dy="688" grid="1" gridSize="10" guides="1" tooltips="1" connect="1" arrows="1" fold="1" page="1" pageScale="1" pageWidth="827" pageHeight="1169" math="0" shadow="0">
      <root>
        <mxCell id="0" />
        <mxCell id="1" parent="0" />
        <mxCell id="CC1QyyT6cucTO0pFoMM2-1" value="" style="rounded=1;whiteSpace=wrap;html=1;" vertex="1" parent="1">
          <mxGeometry x="150" y="140" width="410" height="60" as="geometry" />
        </mxCell>
        <mxCell id="CC1QyyT6cucTO0pFoMM2-2" value="" style="shape=image;verticalLabelPosition=bottom;labelBackgroundColor=#ffffff;verticalAlign=top;aspect=fixed;imageAspect=0;image=data:image/png,iVBORw0KGgoAAAANSUhEUgAAAQUAAAA3CAIAAACKMcjUAAAgAElEQVR4Ad29d1hUV9svbIkaVESagIWigIAIDCC9aEAEKwhKgooVC1YSUIldExtqiPQi9t6lB6SqIL1IZ5jeey/MDN/1cp9vHy6TJ8aI+px3/THXZtiz9mp3+91lj8j4mJaenp422NLT0zMyMlJSUpKTk+E6ISEhfbClDDboNSUlJSEhISUlBf5MTU1NS0v7mAd+hXuTk5PhqWlpaUlJSenp6ampqcnJyTBxmHJaWhrM+iuM72MemZ6enpiYmJGRkZqampSUlJGRkZycjGxHRkYGbBlMDTqGLYbZwX8/5oHDcG9iYmJKSkpqaur58+dTUlL27ds3ffp0AwMDFxeXgIAAX19fY2PjcePGGRoaBgYGHj9+PCUlJT09PSUlJSkpCfYFZjp08HDD0In/p4GOGPjIJhaLJRKJUqkcGBiQy+X9/f1SqVSpVEqlUoVCIR5sCoVCqVTKB5tMJoM/VSqVUqlUqVQf+cAvfbtcLpdKpSKRSCKRCIVCGLZisPX398OFUqmUyWRCofBLD+4jn6dQKIRCoUwmk8vlnZ2dN2/eTE9Pf/78eUdHh0QiUSgUsHdKpVKhUPT39w/drIGBAdVg+8hnfurtcIqUSqVIJKJQKFu3brW0tNy/f39hYWFDQ0NNTc3Vq1c3btzo4eHh7u6+b9++/Px8Pp+vVCr7+/vhWPb39w8MDMBOqVQqqVQqkUhg7z44uI+jBzgosHA8Hk8kEqlUqv7+fpVKBQsKFKJQKGBl5XK5SCQSCoVALTDED47p696gUqnkcrlQKOwfbLDQQBWw4gqFQiKRyGQyqVT6dYf6wafD7nC53JycnB9++MHKysrBwcHNzW3ZsmWnTp2qqakRiUQKhQI+gSqABsRiMY/H+1oTFIlEysF2/fp1fX39AwcOkEgkJpPJZrN5gw2NRufk5Fy6dCkwMHD+/PkHDx6srq6Wy+USiYTD4cBmyeVysVgslUr7+/uRY/nBFfs4epBIJNLBxmazRSJRf38/DofDYrEDAwP9/f1cLlcmk6lUKuCscJJgNCAiYJIfHNPXvUEikahUKplMBkJAJpOJxWK5XA7fwAkD8v664/zg01UqlVAoVCqVaDR6zZo1rq6uSUlJxcXFSUlJq1evtrKycnFxOXTo0Js3b/h8PsLXQCwgsuKDTxn2G4AsBwYGBAJBZGTkzJkzu7u7YS8kEolIJOJwOMzBxmKxKisrf/rpJ0tLSxQKdfr0aQKBAFsDEgN4NJy9zyIfQOEBXYhGo125cmX58uU+Pj4NDQ3AViUSCdAGm83u7u7G4/HAR4VCoUKhGPa1+xwdgtADCYBIOYSSQeIpFAo4bZ9jAMPYJwi08vJyFAp18uRJGo3GYrHIZHJPT09BQcGePXtMTU0tLCxiYmLq6+tBGsA+wmYBox3G8fyTrkC5APrcunWrkZERHGjYEWBMwHC5XC6dTsfj8SUlJZs3bzYyMnJ2dr5+/Toi0hHFCfbxn+jqHycfVCoVl8vl8Xg1NTWBgYF6enooFGrWrFnGxsapqakgPVpaWhISEsLCwhwcHDw9PS9fvkwkEpVKpUQiYTAYQDD/ZF2+1j2ggwJrEYlEtbW1165du337dlNTE5CKWCyGhYY7v9Y4/8lzlUoln88vLS11dnZ+9OgRHBQwKthsNo1GKysr27Fjh6WlpYmJyalTp169eiWXy5VKpVgsBo3xnzxl2O8BdX9gYGDHjh3Tp09XKpUg6MBYlQxpMpmMw+GwWCwikXjt2jV3d3djY+Nly5a1traKxWKYLzBx+NEHh/px9KBQKOrq6g4fPuzg4DBz5sxz584RCISKigpfX19HR0dXV1dHR0d9fX09PT1XV9dt27atWLFCX1/f29v7wYMHPB7v/wl7WiKRCASC/v5+sVjc2tq6atWqKVOmaGlpeXt7p6WlUalUIAOJRCIWiz+4vl/3BqVSKRAIKisrbW1to6KisrOzSSQSwCFCoZBCoQgEAh6PV1JSEhERMXHixPnz52dlZdFoNJAMX4vgQTjw+fxt27bZ2trKZDICgQDMFAYGSgcYrv39/Xw+n8fjSSSS7u7uw4cPz5w509vbOy8vb2BgQCaTsdlsUOOHXz4oFIrCwkJHR8eRI0eeOXOGw+EwGAyFQkEmkyMiIgwNDX18fOLj46urq8vKypKSko4dO7Z9+3ZLS0sdHZ2NGzeC0fN1j8gHn65UKnk8HuASL1++nD179uTJk3V1dceOHaulpRUeHl5eXg6C4oNdffUbwBB68uSJk5NTUFCQgYFBWFhYaWkpGNCgGgFJANl4enpOmjQpODi4uroaZOBXnIJSqdy9e/eMGTMoFAqo6AKBgMvlgoEHGodAIJBKpWA6gxJLIpEKCgrMzMwsLCwOHTpEJpNhEf6hYvJx8mFgYCA/P3/+/PkaGhrffvvtqVOniESiQCAAW5PFYoE539bWtmXLlokTJ44fP15dXX3x4sVr1qzR19c3MDAAo4fFYg0MDCiVShaLBTDOV1z39x6tUqk4HI5MJuPz+RcvXlRXV9fX1x8zZszYsWPHjRs3atQoQ0PDkydPEggEQAbh5wi6B/YocNahDAlY1HvP+tg/AceDpQNgA9BhxDaTDTboFtQeqVT66NEjZ2fnEydOhIeHjxw50sTE5MSJEzgcDjE3ASUXi8UikSgpKUlfX9/Q0PDChQsgKPh8vkgkAgQT2PPQeX3sFD54PygR8KBdu3bNnDmTz+eTyeQLFy4UFhayWCwAkUAdEgqFoOCBSGGxWCqVSiwWs9nslStXTp48eceOHQQCAZZFKpUCegY/gWV8j04+jh5UKtXdu3dnz5798OHDbdu2aWtr+/n5tbe3s9lsLBarUChoNJpUKu3q6goPD584ceKYMWMmTJigoaFha2u7fv36lStXTpkyxd3dPSEhgcfjwZlDsNoPrtSXuQH2o7+/H2AZHx+f0NDQcePGjRkzZtSoUSNHjhw12FxcXG7cuCEQCDgcDmD5wBSkUimXy0UwDZlMBmJ9WAYPrA45/UifUqkUTEZwNcD3CME8e/bM0dHx7Nmze/fudXBwcHV11dXVDQgIyM/PZzKZMFQOh6NUKqlUKovFqq2tDQsLMzAw2LBhQ3V1tUgkgp2Sy+VwTJHnfo6Lv6SHrq6umTNnamhorF27FobEZrNZLBYMjEAgAHmwBxtYuXQ6/cSJE8bGxsHBwa9fv0aUKyB7WEOZTPbeFD6OHqRSaW5u7oIFC7Zu3bpmzZpdu3aZmpqqqanFx8dTqVTYDDC4CQTC0aNHLSws1NXVR40aNWbMGF1d3YULF544cWLu3Lk6Ojp+fn4vX75kMplwpD4ry3lvzn//JzAPmUxWVlaGQqF+/PHH6OhoR0fHwMBAa2trbW3t0aNHjxgxQkNDY9SoUXv27CESiSKRiMVigfMO5APyCMQfNIwTRE4MgoqCqoCIJkDD4IlKpfLly5eOjo7nz5+PiYkJCgq6d+9efHy8o6PjtGnTTp482d7ezmAwACWXy+UA75BIpLNnz1pZWaFQqJSUFAqF0t/fD34kBA9F5ji8F8jslEolIh/a29sNDAxMTEzmzJmDQqHOnz/f19fH5/OZTCaCj7PZbPgt4mrk8XiXL182NjZesWJFQUEBl8tFLGwQdwKB4L19+Th6UCqVjx8/trOzO3/+PGqwJSQkrFy5Uk9Pz9/f/+HDhyArQDGVyWQtLS0xMTG2traampqjR4+eOHGioaHhL7/8curUKUdHR2Nj44iIiLq6un+IDQ/vuv+n3hD/yZUrV+bMmXPy5MmgoKCNGzc2NjYWFxdv2rTJ0NDw22+//eabb0aPHj1+/HgHB4fbt2+TyWTEU4G47WB7FAoFcNb/9MSP+h72D9QDsOmBwQMNwBhEIhG4okCeVFZWOjg4xMXF7du3LygoqLq6uq+vLy8vLywszMjIaPny5fn5+WQyWS6Xk0gkxBcmFApzc3NDQkJsbGxOnjxJJBLBmQ2I50eN+aNu/kt66OzsRKFQMTEx169fX7FiBQz7xYsXNBpNLpcLBALQV+EgiUQixALkcDj379/38PDw8fG5ceMGgUBANgU2+j1h+3H0IJFIiouL3dzc8vPzw8LCtLS0jI2NExISTpw44ejoOHPmzK1bt7548aKnp4fNZoPPQSQSVVVVHT582N3dffZgmzVrVklJCYFAOHbs2LRp08LDwzkczn8PVgOuHxKJtGHDhu++++7MmTMoFCo+Pp5IJFIoFDQanZGRERISMnv2bDU1tVGjRo0dO9bAwGDTpk1FRUUEAgFYDiCDYOohzPujjsVf3gy6JUISCJNjMBgsFkssFsOzgEJAV5ZKpeXl5ba2tpcuXfrxxx9Xr15dU1PT2tra0dGBx+MBozQ0NIyMjCwpKREIBABJwaGXSqUtLS27du1ycnI6e/YsgUCA79/jqX851H/95V/SQ0dHh4WFRXR0NIlEqqqqOnTo0LzBdu7cOTQaTafT5XI5gUBob28Hp7BAIJBIJEwmE/zZBQUFPj4+7u7ueXl5IE8Qh9gn0cPAwMDz58+dnJwKCgoiIiLs7e0DAwO1tLT279+fkpJy+PDhBQsWmJubr1+/Pjs7u6OjA54K+lx9fX1OTs6LFy8ePHhApVL7+/t7enqWLl0aHh4OSva/XsHh/SHoS1VVVXPmzNmyZUtMTAyAd3g8vq+vj0wm83i8d+/e/fLLL8uXL9fS0vrmm29GjBjxzTffWFpaHjt2rLa2lsFgyOVyOKwInx4W7BIEL6IXqVQqMpn87NmzixcvXrhw4fr166WlpW1tbXg8HlgmuNjKysrmzp178eLFffv2hYSEVFZWkslkKpXa09ODxWKrqqr27dtnYWGBQqESEhJ6e3uFQiFY2DweTygUYrHYn3/+2cnJ6eLFiwD1DO+Cv9fbX9JDV1cXCoX66aefcDgcfrDduXNn3bp1KBQqKiqqvLycSCQeP348LCzs4sWLAwMDUqmUz+cD2MBisQQCwYULF1Ao1IMHD4AAYH2Q9UTG8HHyQaFQvHjxwsbG5vnz59u2bXN3d6+trT169Ki1tbWtrW1cXNy9e/cOHz7s7+/v6uq6fv36lJSU6upqNpsNIBLgYmKxWCAQUKlUNBrt6+u7atUqGDcypq97AWEwmZmZ5ubmZ8+eXbhw4fr163t7eykUCplMJpFIeDyeTqeTyeSqqqqdO3daWlqOGDFi9OjR33777fjx4z09PX/77TfwByEhj3Dx6WwV1CSgNFjS0tLSwMBATU3NUaNGaWpqolCo4ODg/fv337hxo7i4uKWlRSwWFxUV2dvbx8fH79mzJzAw8M2bN319fRgMBofDodFoBoOBw+Hu3bsXHBw8e/bsDRs25ObmYrFYCNwEEdfR0REUFATYCbjGPt8e/Q09xMbG0un0vr4+BoPR29tbV1d37tw5Dw+PRYsWxcTEzJ49e8KECerq6jgcDuI1wHMKDorr168vXLjw2bNnoM0CpwaEbehcPo4e+vv7c3Nz7e3ts7Ozt23btmjRovr6eoFAcPfu3cjISDs7Ox8fn8OHDyclJR05cmTp0qWurq4rV64sKCiA4D/BYGMymVgsFtjY/PnzV6xY8Z4NOnR8n+8a1h3pHzmscrmcxWJt27bNy8srISHB2to6Li6OSCRSqVQ6nQ6fTCaTPtgIBEJ6enpAQICent6oUaO++eabcePGmZqabtmy5cmTJxQKBUAn0G4REYHYu+8Ja2Qw/+kCweJAURYIBLdu3ZozZ86YMWPGjx+vqak5ceJEQC8MDAxsbW03btx45syZqKgoFAqVmJi4c+fOkJCQ6upqAoGAx+NJJBKVSsVgMH19fRwOp7a2Ni4ubv78+c7OzqdPn37z5g0YoABe/fzzz35+fm1tbVwuF6TffxrkJ36P0INCodi5c+fMmTMFAkFnZ6eFhcXBgwepVCoWi2UymeCTJhKJmZmZK1asMDc3HzNmjLq6+tixY6uqqsDUAaQYdNeMjAw3N7enT5+CMgLw958n8nH0MDAwkJ2dbWtr+/z5882bN3t5eXV3d9NoNDqd3t3dnZWVtX79ehQK5ebmFhkZ+fvvv0dHR9vY2CQnJxOJRMCdKBQKBoMB4UAkEv38/FauXAmBx5+4jh/7c1Cy4VdwzuC8ymSyjo6OuXPnrlu3LiYmxtPTs7CwEI4OjUZjMBgQTMYYbHQ6nUKhwEny9vaG/YDT6ezsfPDgwZcvX/J4PNgSCIwFvo7AfwiR/MPxA2lBLL1AILh9+7a1tfWIESOmTZsWEBCwYcOGjRs3hoaGenh4zJw5U32wTZ482cDAYM2aNX5+fkuWLMnOzm5vb6dQKEwmk0AgYDAYIpFIJpMZDAYejy8uLt6xY4ednd2yZctu375No9H6+/tFItGBAweWLl3a0dEB8Wn/cLT/4jagBwCCgB5EIlF3d/fcuXMPHjxIJpOBK9FoNAqFQiAQaDRafX394cOHXV1dJ0+ePG7cuPb2duAXbDaby+Xy+Xw2m52SkuLm5vbkyROQscD+hoEecnJyUChUbm7u1q1b58+f39PTQ6fTBQIBnJK+vr5bt27t2rVrwYIFO3fuzMrK8vb2TkpKwmAwCA4LGioWi+3q6lqyZEloaCjs7r9Yu0/5CSIQYIEgJBgAmXv37hkbG58+fdrPz2/dunXNzc20wQbEwGazORwOQN1kMpnP50ulUgKBkJ+ff/DgwXnz5oGdPXr0aIjyuHTpUn19PcSQisVi4ExIBNSfIfC/mRTY+gMDAxBUolQq6+vr16xZM2nSpMmTJ9vY2Pj5+QUGBq5fvz5ysMXExOzbty8yMnLdunUeHh4mJiYzZsxYsGBBWFjYoUOHHj16hMPhOBwOkUik0WhcLhcu2tra4uLiAgICfHx8cnJyBAIBi8WKiory9/dvb28Hbe1vBvmJ//pP9GBjYwP0wGAwQErT6XQCgQCRGh0dHU+ePNm7d6+6unpmZiZgemQyGVAQKpWakpLi7u4+/PSQm5vr6OhYUFCwY8eOBQsWgAIK6pBEImGz2aAO/fLLLxs3bkxNTXVycrp06RIWiwUQkEgkAn13dXV1d3cHBAQEBQV91Jn4xOX+888BUAe1EqJWN2zY4OjomJ6ePnfuXBg8yEAIwQeWw+fzIXwATDcKhcJms3E43I0bN1atWmVgYDBu3Lixg2369OlLly5NSkpCo9GA/yCh4yCX/jyk//QN5F0Bh4ZF4/P5FRUVly9fPnny5O7du319fQ0MDDQ0NExNTe3t7RcOtsWLF69YscLd3X3ZsmWrVq0KDg52cnIyMDDw9/cvLS0VCoVkMlkgEFAoFJgmg8Ho7u6+cuWKvb19SkoKi8WiUqm7d+8GfQncuv9phJ/+/T+hBzqdzhpsoDhRKBQSicRisV6/fj19+vSoqCgwlIlEIg6HAyJPS0vz8PAYZnpQqVTZ2dn29vZ5eXkRERGenp5dXV0gHwQCgVwu53K5FAoFj8cnJSVt2bIlMTHR1dU1MTGRSCSCX5BAIDCZzNbWVjweTyaTFyxYEBwcDLz505fyX/QAoCR8ws8JBMKsWbO2bdt28OBBR0dHQFFJJBKdTmcymVwuVyAQAG0DCMNms/l8vkQi4XK5aDQag8G0t7cnJiZ6e3traGiMHDlyxIgR48aNs7a2jo6OFggEAwMDdDodKOHP8vqDU4DjgsQaQEwxh8MBZtnc3PzHH39cvnw5PDzcwcFBQ0NjwoQJ48ePnzhxopmZmbu7u6WlpYWFhbGxsZqa2uTJk0+dOoVoSqBdgB7S19d3584dOzu7rKwshB4WLlzY1tb230APDAYD1A0ejwfqEI1GI5FIdXV1U6dOjY2NBZkPdEKlUhkMxueih5ycHAcHh7y8vM2bN7u7u4OrQaFQMJlMQLgEAgGBQLhy5cquXbvS09O9vb2Tk5MxGAwkN5EG27t371gsVnd3t4uLy+bNm79AFMBfnrM/R+MolcoXL15MmTLl7NmzXl5eq1atamtrI5FIYE8j9AAoqlQqRVKFwAPA5XJJJFJfX19XV1dBQcHOnTvNzc0nT56srq4+fvx4GxsbKpU6MDDAYDAAcfoXGaeg5iEeT4DmwCaBUUF0NB6Pb25uzsnJycjI2Lx5s4mJyY4dO3744Qdra+tVq1aFhYUFBAS4u7ufPHmyu7tbKBQCTo/H4wHnIJFIDx8+dHR0vHbtGhDbnj17AF/6WvqSra0toi/BYROJRLAFLBaLRqMRicTe3t4pU6ZER0dDFhqVSiWTySD0kpOTP4v9kJub6+DgkJ2dvX79emdn5+7ubh6PB/58QGYoFEpnZ2dWVtbOnTuTk5NdXV1/++237u5uFovF5/MBtcThcBQKpbGx0c/PLygoCIfD/eV5/axfAjEgzjKwHLhc7tq1az09PQ8cODB37twLFy5gsVgqlQoDptPpHA5HIBCAGQBnEdJzeTwelUolEokkEolAIGCxWDwef+TIESMjIw0NDRMTE3V19U2bNoF8gIdClP9HiQgELwdzE/G4QfQO4qIG9RWIhMvl3rhxw9bW9vLly/v371+xYkVpaWlTU9OrV68aGxsh5BvgYzKZLJFIeDwemUzu6uq6e/euq6tramoqIh++or7U09OD0APoSEAMYLUKhUKBQIDBYHp7e7W1tY8dOwaRLICPU6lUGo2WlJQ0/PQgl8sfPnxoZWV19+7dwMBAKyurxsZGCAKTy+VsNptKpQoEgp6entTU1IiICBhEcnIyhN0LhULIL8XhcBgMhsFg7N69Gwj63bt3n/X0/7nz9+gBlD0CgaCpqblz584ffvhh4cKF5eXlFAqFTqej0WgSiUSj0dhs9lB6UCgUAoEANA02m00mkwkEApFIxGKx7969i4yMnDZtmrq6+qxZs8aPH19QUKBQKHg8HsTlA0b+UbbTUEEKZg+oTyA0kBhbIAzwNCsUiqKiIhcXl4SEhJiYGPBPk0gksILodDoCf4lEIjabTSAQyGQy6EvfffddSkoKqCKRkZG+vr6gLyFQxJ9X9dO/+Uv74T16YLPZIJkhTYXJZFIolN7eXjqdrq2tffDgQTCxKBQK2NN0Oj09Pf2T7AckXx4So8ViMZlMPnPmjKmp6bfffpufn5+amqqnp2dvb9/W1sYZbCQSic/ng+MzLS1t+/bt6enpbm5uEBAmEom4XC4Wi+VyuV1dXXg8XqVSEYnEw4cPm5mZWVlZZWRk8AcbwN5gkHz6+iLyHVBdJKwfQuch9gt0Yjqd/vjxY01NzXv37hkZGQG8CIgkgUAATxCFQgETAgBTWCXwMEI2COwBBoMpKSnx8/ObOnWqnp7ehAkT5s2bRyKRhnpaPuupgnUDwiguLnZwcLh8+XJUVFRISMjbt2/BHIKJILofn89nMBh0Op1EIuFwuFu3brm7u2dmZkKK6Z49exYtWtTe3v65hw39A+Xv3r3b1NRULBb39vY6OTkdO3YMJDDiGIEkUlh5DAaDxWJ1dXVjY2MBXwJZDTjBMOBLCJqBw+Hi4uIcHR1Hjx7t4OBgZGQ0a9aspqam9PR0TU1NLS2tvLw8oE4Wi0Wn0yUSyYMHD7Zu3ZqSkgKcCYfDcblcYD8tLS2gJEC8pFAozM7O/uGHH2bMmBEcHFxTUwNBMojhOCwkgXQC5SQgIQYhhp6eHh6P19HRoaOjM2nSJBjPuHHjnJycUlNT6XQ6WJlisZjJZEIFFxKJhMFgwIkrEonAqgN3BOhLWVlZVlZWampqM2fOnDhx4saNG9lsNjKML3OB0IO9vT3QQ3BwMNADjUbjcDhCoRCpEQH0wGAw3qMHNptNoVD27NkDeOtXoYfu7m5zc/P9+/eDcUyj0ZDaLhBgz2AwMINNR0fn4MGDw0wPKpWKyWSCzUen02/cuKGtrW1qanr+/HksFpuYmDhv3jwfH5/Xr1/X1tbOnTv322+/XbduXW1tLZQRAH1p8+bNYD8kJCT09fWBDQRoDKL4Ily2ubl5165durq6Bw8e5HA4EBAKavGnHx3QHEAxADUDrAXw2pDJ5IqKil27dmlqak6dOnXjxo26urohISGxsbEWFhaWlpa7d+8uLS0FRUgqlQIThTAn4WAD4BV4ATiJ+vr69u/fr6mpOWbMmDlz5mhpaV25cuW91JNPn9cHe/hfQw89PT02NjaxsbEQogeKK+QXQPbP56UH0DEAtOLz+ffv358wYcL06dN37NjR2NgolUpv3bo1d+5cPT29Bw8e0Gi0s2fPmpmZ6erq7t27t6qqikqlZmZmRkZGpqWleXp6gj8Oks7gGEHVEPAuMRgMCCbB4XDbt29fvXp1R0cH2ItALR/c9Q/egLA0BOUEW5PFYjU1NW3dunXKlCmzZs06fvw45Ot1dXWtXbt29uzZ69atmz9/vra2tpOT07lz59ra2igUCkAxaDQadD/uYAPHC41GAx9QS0vL2rVrxww2Q0NDU1PTmpqaj3VFf3BeH7zhfw099Pb2olCoAwcOQCI1SDYwgYRCIYvFYjAY2MGmo6Nz4MCBYZYPoE8jMZKPHj2aPXu2mZmZhoaGn5/f48ePeTxedXW1j4+PtrZ2dHR0Z2dncXFxZGSkoaGhnZ3d8ePH9+zZs3nzZjBiEhMT+/r6IGtMpVLx+XyIIYEaeBC/3tvbW1FR8eOPP4aFhXV3d0NsOqLrf3Dj//4GUL36+/slEgkoY0wm89WrV1FRUdbW1mZmZlFRUWg0GpSirq4uMIhv374dFBTk4eERFBTk4uJiZGQUFBR09erV+vp6NpstlUoB3EDCN8DPSB5shYWFCxcuHDNmDICtAQEBUKXq78c57P/9X0MP3d3dFhYWsbGxJBKJTCZDGhCIZcgKGkoP+/fvH356gBp1kI165cqV2bNnu7m56enpaWho2NjYZGVlUSgUDodz6NAhS0tLKyurhISE1tbWhw8fBgUFTZkyRU9Pb82aNWlpaS4uLvHx8Wg0GtQVCDaEcKv+/n42m93S0pKXl5eRkXH06FE/P6GAXKsAAB7hSURBVL8NGzYQCATg6MMoHwAbVSgU4NCNjY11dna2sbHZunVrcXExpES2tLTk5OTk5eVBsptSqezu7j5x4sR3g83f39/MzMzIyCgyMjI/P7+trY1AIACWBwYGkBNATGlpaZaWlmpqatOnT9fU1Dx58iSHwxn24/7BDv/X0ENvb6+9vf3hw4fBK4oYPzweD4xpJpMJ0KWOjs5noQdQ8eFEPnr0yNjY2MDAYPTo0WPHjjU0NNTV1f3xxx/fvHnDZrMLCgpCQ0PNzc2XLVv26NGjmzdvmpqajhw5Mjw8PDMzE+gBh8OBMQDRO1ALUalU4vH41NTUgwcPHjt2DNIn1q1bh8Q1ANl8cNc/eAOAFVKptLu7Oy0tLTAw0MXFZcOGDa9evQI3SHd3N9QGpVKpQqGwtrb23bt3bW1tDQ0NWCy2vr7+wIED3oPN0dHRyMjIzs7uxIkTr1+/JpFIFAqF+v838K709fUdPnx4woQJampq06ZNMzY2zs/PHy5Z98HJDr3hfw09oNFoOzu7lStXAgIOlcgQmJtOp0PUOhaL1dbWjomJ+ffyAXFIARQIEcigvgP4IJfLb9y4MWPGjGnTpqkNNgMDA319/ZkzZy5cuDAzM7O3txePx2dlZS1ZssTc3NzGxmbSpEkaGhqxsbF37951d3dPTU2FFAjEqwoOI5FI1NHRkZiYGBMTc/DgwRMnTgQFBYWGhra1tUHNjqFb+ynXkAn5+PHj9evXz5s3b/369Q8ePGhpaeHxeFwut6en5+3bt9nZ2S0tLQKBACDjly9f3r9/v6ysjEqlcjgcNBp9+/bt8PBwNzc3Z2fnOXPmmJiYeHp6Xrt2raOjg0ajYTAYcIUSCITGxsZNmzaNGDFCS0tLT09v/vz5zc3NHxva/SnzRX4LsERpaamDg8Pvv//+008/rVq16u3btzBU0MIRvJXH40HQLuBLN2/edHNzy8jI+ML4EhxIUHH37NljbGwsEomIRGJoaCgKhdqwYcOdO3egnCtsDYPBgLgMMpmMw+E0NTU/CV8CBQbMXCADKBwGygwUBrx69Sqkeo4dO1ZdXX3cuHHa2trh4eHBwcGzZs3aunXr3bt329vbsVhscnIy5FKamZnt2bPnp59+sra2vn37NlAClHyF2m/g5Wlubr5y5cqhQ4dARISEhISGhnZ1dYHvdljwJZlM9vLly59++snV1dXZ2fnXX38FY6arq6u+vr6xsbG3t1cgENBotLa2tjdv3pQPNkAF6uvrS0pKygZbfX19V1dXVlZWSEiIp6enpaWloaEh1PkqLCzs6Ojo6enB4XAEAuHZs2dubm4jR47U19fX0tL66aefINMSMeuR8/pZLwBDU6lUUK8yLi7uxx9/DAkJqampATUP6AEKToN3CBgtiUTCYrE3btxwcXFJT0//wvQAwY4QXrl3797p06dDoZB3796dPXvW29vbxcXl+PHjb968IRKJTCYT4q/gOLW3txsZGX2SPQ3uNshMBx2JQqEAvgQl3TkcTmZmpomJyaxZsyD/aNy4caNHj05OTm5oaDh9+nRkZOTy5ctDQkKuXr2KRqM7Ojog5Nvf33/WrFlWVlZPnjwBXxiY1BwOB9JQKBRKc3NzSkrKkSNHfv3112PHjvn7+69Zs6a7uxuEFZLk+innhsPhbNy4UUNDY+nSpfn5+Z2dneA66O3tra+vfzfYenp6qFRqY2PjixcvysvLX7169fbtWyqVWlpampeX9/r161evXnV0dIAwqaioSE5O9vf3R6FQ5ubmxsbGHh4eR44cqays7O7uxmAwGRkZenp6o0eP1tHR0dbWzsrK+orZ4QqFori42NbW9vz583v37oVaYxQKBULiIEOLy+WCRxVCfb4uPYBkAKrYvn27ubm5UqkkkUjPnj1LTU29cOHCtm3bHBwcgoODMzIympubWSwWhUKBEKa3b9/a2Njs3bv33+tLUGIEyR+Hg/vs2bNr165VV1eDYlNRUbFy5cpp06bZ2NgYGRmNGTNGTU0tLS0NQpLQaHRERMTkyZOnTp26Zs2aS5cuVVVVdXR0lJaWwmtEOjo6kCI/LBaLRCKh0eje3l4Gg9HT03P79u3z58+fOnVq9erVKBRq3759BAIBIhqGRcdgMpkrVqwYP368v7//69evu7q66urqysrKWltbqVQqn89vaWl5+fJlWVnZ48ePqVSqXC7H4XB//PFHeXn569evCQQCn89Ho9FNTU1tbW1v376l0WhKpbKgoODs2bPW1tbm5uZGRkYmJiahoaG///57Tk5OdHT0uHHj1NXVNTQ0LC0ty8rKwJr/wvIBeIpEInn58qWLi8vly5ehnkBVVRWRSGQwGKB/IyQBFV0R//TNmzddXV2/ir4EgScDAwNbt261sLCQSqVPnz51dHT08vIKCwsrLCy8du3asmXL7O3t9+zZ09jYiMPhIKmmpaXFxMTkk+xpKBAECVwymYzFYl26dMnW1tbOzm7JkiVxcXEYDIZGo5WWli5fvtzExMTGxsbMzGzixInx8fF8Ph/qkt+8edPLy2vixInffPONrq6uj49PdHT0s2fPuru72Ww2ZCSzWCxAiDs7O3k8HpPJRKPRfX19xcXFe/bssbe3t7Oz27lzZ0VFBZQ8QRblU4QDBJMuWbJk6tSpXl5eixcvvn37NoRg1Ay2np6evLy8wsLC1tbWW7du1dfX9/b2tra2FhQUVFdXl5SUoNFoLpfb1tZWP9iKioooFIpKpQL16cGDB4sXL54xY4aRkdGMGTMsLS0XL17s5OQEyUAaGhpr1qzp6emBzLivQg8ymay8vNzNze23337bs2dPcHDwmzdvgKEymUyQEkKhkM/nQ9zeUHpwc3PLzMz8wvoSuIZgrbZs2WJqasrj8RISEoyNjWNjY93c3OLi4hgMRllZWXR0tJub2w8//PDgwYPe3l4mk9nW1mZoaPhJ9gOU8gOq6OnpOXDggJ6eHgDtgYGB5ubm4eHhhYWFHA6nsrIyKCjIyspq4cKFq1atevPmDRS6kUqlkIpx/vx5Dw8PKNQFsGxMTExLSwudTicSiX2DDcJ7IJ8dUkx9fX1tbGw2bNjw+PHj3t5e5N08oLx9IjEMDAywWCyQPKmpqb6+vt999x3kfNFoNDjxBQUFfX19MpkMTvyTJ09KS0s7OzsFAgEaja6urobvOzo6WCxWW1tbXV1dV1dXY2MjHo+XSCTV1dX79++3tLTU1dU1NTWdMWMGFPPU1NTU0dG5fPkyi8WCvPUvTw/gRyovL3dwcLh06VJMTMz333//9u1bBoMBsD1g+VwuF7woEOrz1eM1wBGsVCo3bdpkYmIC4T/GxsZr1651dHQ8cuQIqPdEIvHWrVvz5893dHSMjo4uKiqCsmXR0dH/Xl+CurBQN3z79u3a2tqHDh168OBBZWVlWlrahQsXvL297ezs9u3bV1NT09nZGRMTY25u7uXl9fz5c3A5g5lRXl7e2tra3Nx8586dkJAQHR2dsWPHrl27tr6+HgqEQJIuDoeDYLI//vhj8+bNc+fO9fDwuHDhQldXl0gkgrI5wCEgjf3TzxCfz//5558tLS1Xr16dmJi4du1aHx+f+/fvA45EIBDevXsH9aCgIj+JRGptba2pqaHT6Y2NjS0tLRQKBSxvNptdW1tbXFzc1tbW2NjY2dkpFoufPXv2+vXr0tLSyMjI6dOn6+rq6uvraw42Gxub/Px8KN8yjCXJ/jmPAF28tLQUhUJBkYcVK1b88ccfBAIBaADSkZlMJiA2UIeGSCTi8fjbt297eHh8efmAZLH39/dv27bNxMREpVL19PSEhoYaGhrOnj07NTUVAHTILyguLt69e7eFhYWvr29KSoqBgcEn4a1w+BoaGr7//nsXF5fTp08/fPjw+fPncA6am5tLS0t37NhhYWEBmZ/Nzc1Xr161s7OzsbGBwCSlUsnhcKA+1K+//lpTU9PX1/fgwQN/f/+NGzc2NzeDNABEsq+vr62t7dy5c2ZmZsbGxj///HNdXR2Hw4EsAiBrCCsamu//z0/An+9UKBQ4HC4+Pl5PT+/7778/f/78qlWr5s6de+rUKajWRiQSa2tr8/LyqqqqQEkTCoXgfKitrQU3IpFIrKurq6+vb2hoAF8KHo+vrKzs6elpb2+H/DgcDpeXlxcSEjJu3DgtLS1NTc3Fixc3NjZCXeFhsYX+PLu//wYeCoU3ExMTQY7Fx8fD5jIYDAgEgjhLBoPx30APACqC4ys6OhrehyKTyTo7O58/f37z5s2cnJyrV6+mpKRAZUeBQNDb2/vgwQNnZ2djY+OxY8d+qv1QVFTk4eExZcqUc+fOkcnkzs7OhoaGzs5OPp9fUlKCwWBIJFJeXt7ixYunTp0aGBh4//79/Pz8LVu2GBkZLViw4NGjR2w228TEZNSoURoaGnPmzImMjMzOzk5PT4+Nje3s7MThcJ2dnXg8nsfjXbt2zcPDw8DAwM/Pr6ioCKqpQeVTEAWgJn26WBh6UJRKJZlMjo+Pt7a2Xrp06b179zZs2DBlypSwsLDa2looCEAmkzs6OvLy8qAKtEQiIRAI1dXVb9++7e3tbWxsBDUDTKmmpqby8nIouAYZuiKRiEqlUiiUrq6ujIyMiIgIKyurmJgYJCzyq/jjIN3izZs37u7uaWlpZWVlgYGBU6dOXb58+YsXLygUCiixDAYDohXByMZisX19fUg+0Be2H0B1hyw/SI9B1CehUPjw4cO5c+caDbYZM2ZkZmZSKBSpVCoQCPB4/MmTJ9XU1A4cOAAZyBDvDc5SCKV7+vQp0huEqw49JwMDAyNOnz5tbGzs6ur68OHD7u7uuro6yP2/c+fOkydPCgsLe3p6wABtampKSEhwdnY2MDA4efJkS0tLenr6nDlzJk2atHjx4szBZm5uPnr06AkTJujo6Ojp6YWFhdXV1UHMyYsXLyIjI/X09KysrFJTU3k8nlwuR+rRvjesYfwTQqEgv/nmzZseHh5r166tqKi4ePHi3Llzrayszp49y2Kx4LUP4G6vqqqCetdMJrO6urqxsbGtra29vR28hJAi29TUBGWLFAoFlUqF/4I/mEwmx8XFWVhYpKamgjo6XIEnH7UsCFKSm5tra2t79+5diURCoVAyMzNh144cOQJZWZCeLxQKe3p6ent7Ic0yKyvL2dn5ypUrX5geoAIaOE+io6O1tbUh5o3NZmMwmO3bt3t6eubk5Lx+/Xrnzp1ubm5lZWXAPauqqsrKygAEgmwhwmADoZeamurh4fEePfyZSY3YvHmzmpqai4vL/fv3oZybWCxOSEh4+PBhUVER5H9hsdienp7u7m4AHCMiIrS1tadMmXLlypWqqqrExERDQ0M1NbXVq1cXFxcnJCTMmTNn5GCLiIggEAitra0XLlyYOXPm5MmTo6OjGxoaQI6DnwVSmf5FJvE/PxzgDezv7+dwOFeuXHF1dXV3d8/JySkpKQkICJgxY4aXl1dOTg5krkHV/q7B9vbt28rKSrB8Xr16VVFRUV1dXVdXx+Px3rx5k5+fD2AUuFPu3Lnz4sWL/Pz89evX6+jo+Pj4vHr1CkEFPndZuz+vhkqlgiSB4uJiCwuLjIyMgYEBkUjEZDJbWlq2bNmipaUFCBJEKLa0tBAIBA6Hg8Vi29vbr127tmDBguvXr39hegCbB07IqVOnxowZU1JSAlmEra2tAQEBUC5AqVT29PQsXrw4OjqaQqFcuHDBzMxMX1/fyckJSuiKxWIajQZCm8lkpqWlubu7f5gegoODNTQ0xo8fP3369OPHj9fW1nZ0dEBx/by8vIqKimfPnoF7VSAQ5OfnFxYW4vH40tJSNzc3NTW1hQsXlpaWUqnU6OjoadOmaWtr+/r6xsXFgWdx7dq1UNdg6tSpYWFhL168EIvFQM3w1ibkBcl/3s7h+gaSHyC2HOL5rl+/bmtra25uHhcX9+7du/T0dENDwzFjxqxbt66srIxIJIJ3nEKhtLe39/b2gv+hsbGRxWJBcRDIrVMqlRgMRiKRPHnyxNPTc/z48fr6+ubm5iYmJps2bWpubpbJZFDNbmhQzHDN65/0AyLi7du3tra28+bNe/ToEcQsQyBCdna2o6OjmppaeHh4UVGRUCjs6urq7OwkDrasrCwnJ6cvb0/DvCDOLTc3d8yYMcHBwZAh3dLS4uvrGxUVBZHRAwMDT58+9fb2rqioWL58uaWlZXh4uIWFRUVFhUqlEggESCgHk8n8p/Lh9OnTRkZGampqmpqa33777ZIlS8BMFAgEhYWFL168aGlpkclkGAymvr4eUuYrKyuLioru3bt3+vRpd3d3NTW1gwcPAihx5swZeIUceKkmTZpkYGBgZ2d3+vRpEokE0AGbzUaMBGAGH1uG6J8chaH3ICwHXhrC5/Orq6tDQkL09PTWrl1bUlKCx+OPHj1qbm6upqb2448/ZmdnQ0Q3n89va2urrKwsLS3FYDAKhYLL5QJg0NfXh0ajyWTy+vXrR40aBeUiNTU1Fy5cePfuXZAGEBoE4v6j6gYMHfynXPf390OE4qNHj1xdXV1cXB49esTlcpHy42w2OzY21sDAwMnJ6cyZM8Da0Gh0W1vb9evXXVxcIPbsC+fHQfQQID1BQUHq6uo3btwQi8WNjY1QbY1MJkPUT11dnYuLS0ZGxpEjR2bMmJGbmzt9+vSdO3cqlUoAzTAYDIDIiYmJXl5eH5YPYrE4Jydn0aJF+vr6NjY2WlpaEydO3L59e35+PhQHYLFYra2tAMlzOBw8Ht/Z2VleXv7u3Tsmk1lZWbl58+YZM2ZAhi7U1iwuLl63bh1kRUdGRtbX14NLDvguYDigJkK2GrzE9lM2/m9+C8oSPA55yaRIJMLhcPDKD3Nz88zMzKampvz8/IiIiFmzZsHrBW7evIlGo+GNLfX19ZWVlTQaDaSwSCTCYDClpaWmpqYTB5u2tralpeWZM2fgHj6fz+VywWIDLgDVA/5mnJ/jX6CFw+IXFRVByPr58+epVCq4CKHAfXl5+bx583R1dZcuXZqZmVlbW4vBYO7fv+/p6fnl/dNQtX9gYADU15KSEh0dndmzZ9+/f59AIEBFr5SUFBg5BoP57rvvjh49WllZ6ejoaG1trampCUXHoJgLDocTCAQkEuncuXP/lB5EIhGZTD569OicOXOsra1RKJSOjs7UqVP3799fUlLCZDI5HA5k+jOZzJqampKSkoaGBhqNVlVVhUajZTJZZWWlu7u7hYXF8uXL7969C+BpTU1NYWEhk8mEPGwkZAOENeDx8C4wCFb5HAcCHFIsFgvCUuBoAnoN5kRBQUFwcPD06dPd3d2vX7/e09PT2Nj466+/enh4mJmZeXp67t+/Pzs7u62traenp6ampqOjo7e3t7y8HEJUAOiYNm1aaGjoy5cvkdfhAc2rVCqIbP8qzgeI15DJZBQKhc/nC4XCN2/ebNmyxcrKavfu3Y2NjbDsoKmz2ezff//dwcFh1qxZMTExBQUFv/32m4ODQ1ZW1he2H2Ct4MxAEk58fDxU2rx69Srwbh8fn2fPnmGx2Ddv3vj7+yckJPD5/Kampl27dgE6AhoHxB2LRKKGhoaIiAgUCvVh+aBSqRgMBrwo4M6dOx4eHra2tgsWLHBwcDAxMXF2dj5//nxVVRVUVWpqaqLT6VKptL6+vqCgoKysDBIAoDjctWvXwC2CxWKRkweVoQB4ASgT9mmoSg1vj/xM9ADdKpVKSPoB8x0BFgCRzMzMXLRoEUSw3759u76+HgzKdevWOTg4zJ4928PDIzo6+tGjRxUVFYcPH7a2ttbV1TU2NtbS0vLy8oIiRTAjJOFpaNFBCHf/rBP8y85BUQQxBe9ERKPR+/fvR6FQoaGhBQUFUE4KSEKpVNbU1GzevHnatGkoFGrVqlXOzs7p6elQSXv37t1QXwPeJ/KXjxvGL4EqQMZKJBIAaYyNjWNiYuLj4+fPn29nZxcREREYGOjr61tRUQG0DUopaIP9/f1EIhF02itXrjg5OXl5eZWVlUGsAKzMn3G//6nvDQwb9IqGhobY2Fi/wTZv3jxLS0tYu7i4uKdPn7a1tYHBjsfjKyoqMBhMW1sb1IGClwRHRUW5urpiMBgggGFcoGHvCmwYGKdcLu/t7U1OTl68eLGHh0d4ePhvv/2Wm5tbVVWVnZ198eLFLVu22NvbGxoampub6+rqampqgiDdu3dvTU0N0BiEXYHwGfbRDmOHdDo9MzMzICBg0aJFcXFx1dXVDAYD4quxWOzhw4cXLVrk7e1taWk5e/bspKQkJpOJx+OhfmtrayubzQb6GcYhfbAriUTy/PnzRYsWzZkzJyAgYM2aNVCXf8WKFTdv3uRwOCAQkFMHpQawWGxnZ+f9+/d9fHwcHR0BKwN6hvuHMmUYw//QA9ATYtpCfaTjx4+vWbPG29t7/mDz8/NbtWrVsWPHHj161NjYKBKJmpqaCgsLi4qK4DW7VVVVcXFxvr6+wcHBJBJpuLzLH1ypf30DUsYYeTuRQqEgEokFBQUXLlwICwvz8/P74Ycfjh07dvXq1efPn0dFRenr66urq0+bNs3NzS02NvbWrVvwhgeQgQCJDK8n8V/P7m9+KJPJeDxeU1NTfHz8ypUrAwICjh079vLlSzqd/urVq9GjR1tYWJw/fz4hIWHVqlU5OTlQADwqKmrx4sU1NTVfJTYR8KKmpqazZ896eHiYmpp6enqGhYX99ttvEIUNPB0xTUHs5+Tk7Nu3z83NzXGwOjWTyRyacYkUdBu6ViOApICrQaewu2KxuLm5+ejRox4eHg4ODoGBgcHBwR4eHsuWLTt16lR1dXVLS0tTUxMUvcnIyPD393dyctqyZQu4eD+q7NzQAX2xa4RiIUgElhIsfrlcTiQSX7x4ER0d7efnZ2tr6+3tbW9vD/mfa9euhYhAAJGQWG5wfH553vmxK4ZU3FGpVA0NDQcOHPDy8nJzc/v555+fP3++fPnynTt3FhQUUCgUSIqC0qi7du1asmQJQCPIm1Q/9tH/+n7Eg8RkMouKio4ePerm5jZx4kR9fX0/P7/Y2Nj09PSbN2/m5ua+fv26uLj4xo0bv/zyi7e3t76+fmBg4L1792g02ntbg5z8oaMaAccC6AHOBHwDleeYTObjx4/DwsIcHR39/f23bNkSHBxsbW0dEhLS0tLS19f39OnTTZs2mZmZLV26NCsrq62tDeLwoFDp0Cf9t11DlBSiLsLcQW0FHq9QKBgMxtu3b69fv/7zzz8vX758xYoVCQkJSPoemD0ADgLSj2Aj/22THToexLBBgK/8/PyoqCgPDw9XV9fQ0NAbN24gKAhkDjIYjPDwcF9f387OTkjqGtrhF7gGekBOJolEevLkyYEDBzw8PCCA0s3NzdvbG96dBRHT06dPX7Bgwblz5yAkB2F/COtHXKVDx/9/3g8EvA1iv+ET4hcgsLazszM5ORkCXdetW7do0aIZM2YkJSVBRXhbW9sLFy68evUKeb8lSJihj/kvvEaWAwkihNeywMkWiURgnMHKsFislpaW1tZWCoUCxe6hZCLiVUBsOOC+/4XzRYYEfBEAHFCSJRIJvBkI3ofk5ua2c+fOO3fuoNFokUjEYDByc3N9fX1jYmKoVCqYSUhvX+YCgGNI24RYDLlcTqPRioqKzpw5A2WyHB0d/fz8QkNDly1bFhsbm5CQUF1dDQFyYDcDJYBb4z1Zgczi/8oHxMIAAxyKCQAOo1Qq6XR6RUVFbGws1KucNGmSpaWlmZnZrl27iouLoaQSkGB/f//wVgNAxjq8F0hOAsIwQEQgrAEECHzKZDKoJwsFQwHRh2I8YJMhlhwQxvAOdXh7Q97iDhd8Ph/GDIVbioqKYmNjvb29HRwcVqxYcfLkyePHj3t5efn5+VVUVICK+FVsJGCyyGmGPyEErqWl5Y8//nj69Om1a9ceP34MVVEA+wbBAn5Y0AVAPCJTACGJrPAIhE3COUAQKORV9cixACT7/v37q1evNjU1hRewYzAY+CGwVQhLhOzT/3ITAsgAPpGKsbAuiHGGqJigGslkMij8CumswEFgAWERhno5kCX+b7uAIwUHAsJY4FMqlYKopNFob9++TUlJ+f777+3s7GxtbdeuXZubmwscAWb6VSYF2wFkLJVKYSIg4oAjQ8lQOIqAmMF/gdMB0A/fwPiBWobO5f/Y0wjYAr+EBwMHBXqAGyDcqK+vr6Ghobu7G6xPeIBMJgPeCVVKFQoFQMLQ1b/+hBA02Dx4UxgIzX/d4Z9/+N40YdWGeoUAvIP1RSwECBob2hvCuoZ+ObzXcF6H7h/0j6CNsDhww3969NAtRu6B2YGEB3bA4/HQaHRdXV1tbW1fXx+kJSAqABIs/R55wGGFHiCgEOkTedanXCCbBccS5gKHDR6EPA5ULHCsIacfjjEyAOgN+VOpVP6PvvTpDQYHvBbEAkI/n9g5EqQJ3AvUvqGq3Sf2/+efIyoiogghjwOksr+/H0p8//m3n/sbxEoB8waCBhBOibB8uABh9ZmGNFQthMfBKgHaBtAzQPmfaQB/3y0MDw46MBFAWv/+VwqF4v8DcefZjG+obXYAAAAASUVORK5CYII=;" vertex="1" parent="1">
          <mxGeometry x="160" y="140" width="261" height="55" as="geometry" />
        </mxCell>
        <mxCell id="CC1QyyT6cucTO0pFoMM2-3" value="&lt;b&gt;&lt;font style=&quot;font-size: 14px&quot;&gt;User access Interface&lt;/font&gt;&lt;/b&gt;" style="text;html=1;strokeColor=none;fillColor=none;align=center;verticalAlign=middle;whiteSpace=wrap;rounded=0;" vertex="1" parent="1">
          <mxGeometry x="430" y="157.5" width="100" height="20" as="geometry" />
        </mxCell>
        <mxCell id="CC1QyyT6cucTO0pFoMM2-4" value="" style="rounded=0.5;whiteSpace=wrap;html=1;dashed=1;strokeWidth=2;" vertex="1" parent="1">
          <mxGeometry x="140" y="230" width="360" height="370" as="geometry" />
        </mxCell>
        <mxCell id="CC1QyyT6cucTO0pFoMM2-5" value="&lt;b&gt;&lt;font style=&quot;font-size: 19px&quot;&gt;Core Services&lt;/font&gt;&lt;/b&gt;" style="text;html=1;strokeColor=none;fillColor=none;align=center;verticalAlign=middle;whiteSpace=wrap;rounded=0;dashed=1;" vertex="1" parent="1">
          <mxGeometry x="170" y="285" width="40" height="20" as="geometry" />
        </mxCell>
        <mxCell id="CC1QyyT6cucTO0pFoMM2-6" value="" style="rounded=0;whiteSpace=wrap;html=1;strokeWidth=2;" vertex="1" parent="1">
          <mxGeometry x="150" y="485" width="330" height="100" as="geometry" />
        </mxCell>
        <mxCell id="CC1QyyT6cucTO0pFoMM2-7" value="" style="rounded=0;whiteSpace=wrap;html=1;strokeWidth=2;" vertex="1" parent="1">
          <mxGeometry x="220" y="365" width="260" height="100" as="geometry" />
        </mxCell>
        <mxCell id="CC1QyyT6cucTO0pFoMM2-8" value="" style="rounded=0;whiteSpace=wrap;html=1;strokeWidth=2;" vertex="1" parent="1">
          <mxGeometry x="275" y="250" width="205" height="90" as="geometry" />
        </mxCell>
        <mxCell id="CC1QyyT6cucTO0pFoMM2-9" value="" style="rounded=1;whiteSpace=wrap;html=1;strokeWidth=2;" vertex="1" parent="1">
          <mxGeometry x="520" y="230" width="50" height="370" as="geometry" />
        </mxCell>
        <mxCell id="CC1QyyT6cucTO0pFoMM2-11" value="" style="endArrow=none;html=1;strokeWidth=3;" edge="1" parent="1">
          <mxGeometry width="50" height="50" relative="1" as="geometry">
            <mxPoint x="190" y="485" as="sourcePoint" />
            <mxPoint x="190" y="315" as="targetPoint" />
          </mxGeometry>
        </mxCell>
        <mxCell id="CC1QyyT6cucTO0pFoMM2-12" value="" style="endArrow=classic;html=1;strokeWidth=3;" edge="1" parent="1">
          <mxGeometry width="50" height="50" relative="1" as="geometry">
            <mxPoint x="190" y="275" as="sourcePoint" />
            <mxPoint x="190" y="195" as="targetPoint" />
          </mxGeometry>
        </mxCell>
      </root>
    </mxGraphModel>
  </diagram>
</mxfile>
